<svg xmlns="http://www.w3.org/2000/svg" xmlns:xlink="http://www.w3.org/1999/xlink" width="16" height="16" viewBox="0 0 16 16">
  <defs>
    <clipPath id="clip-Copy">
      <rect width="16" height="16"/>
    </clipPath>
  </defs>
  <g id="Copy" clip-path="url(#clip-Copy)">
    <g id="copy-2" data-name="copy" transform="translate(-1 -1)">
      <path id="Path_24072" data-name="Path 24072" d="M10.182,9.455a.727.727,0,0,0-.727.727v6.545a.727.727,0,0,0,.727.727h6.545a.727.727,0,0,0,.727-.727V10.182a.727.727,0,0,0-.727-.727ZM8,10.182A2.182,2.182,0,0,1,10.182,8h6.545a2.182,2.182,0,0,1,2.182,2.182v6.545a2.182,2.182,0,0,1-2.182,2.182H10.182A2.182,2.182,0,0,1,8,16.727Z" transform="translate(-1.909 -1.909)" fill="#fff" fill-rule="evenodd"/>
      <path id="Path_24073" data-name="Path 24073" d="M3.182,2.455a.727.727,0,0,0-.727.727V9.727a.727.727,0,0,0,.727.727h.727a.727.727,0,1,1,0,1.455H3.182A2.182,2.182,0,0,1,1,9.727V3.182A2.182,2.182,0,0,1,3.182,1H9.727a2.182,2.182,0,0,1,2.182,2.182v.727a.727.727,0,1,1-1.455,0V3.182a.727.727,0,0,0-.727-.727Z" fill="#fff" fill-rule="evenodd"/>
    </g>
  </g>
</svg>
