<svg xmlns="http://www.w3.org/2000/svg" xmlns:xlink="http://www.w3.org/1999/xlink" width="16" height="16" viewBox="0 0 16 16">
  <defs>
    <clipPath id="clip-Disconnect">
      <rect width="16" height="16"/>
    </clipPath>
  </defs>
  <g id="Disconnect" clip-path="url(#clip-Disconnect)">
    <g id="x-mark">
      <path id="Path_24074" data-name="Path 24074" d="M8,16a8,8,0,1,1,8-8A8.009,8.009,0,0,1,8,16ZM8,1.143A6.857,6.857,0,1,0,14.857,8,6.865,6.865,0,0,0,8,1.143Zm0,0" fill="#fff"/>
      <path id="Path_24075" data-name="Path 24075" d="M152.573,153.145a.569.569,0,0,1-.4-.167l-5.714-5.714a.571.571,0,0,1,.808-.808l5.714,5.714a.571.571,0,0,1-.4.975Zm0,0" transform="translate(-141.715 -141.717)" fill="#fff"/>
      <path id="Path_24076" data-name="Path 24076" d="M146.857,153.144a.571.571,0,0,1-.4-.975l5.714-5.714a.571.571,0,0,1,.808.808l-5.714,5.714A.569.569,0,0,1,146.857,153.144Zm0,0" transform="translate(-141.714 -141.715)" fill="#fff"/>
    </g>
  </g>
</svg>
