<svg xmlns="http://www.w3.org/2000/svg" xmlns:xlink="http://www.w3.org/1999/xlink" width="16" height="16" viewBox="0 0 16 16">
  <defs>
    <clipPath id="clip-Switch_Account">
      <rect width="16" height="16"/>
    </clipPath>
  </defs>
  <g id="Switch_Account" data-name="Switch Account" clip-path="url(#clip-Switch_Account)">
    <path id="random" d="M7.357,8.4A.8.8,0,0,0,8.485,7.27L3.47,2.231A.8.8,0,0,0,2.335,3.367Zm9.837,3.2a.8.8,0,0,0-.8.8v2.871L12.748,11.6A.814.814,0,0,0,11.6,12.748l3.671,3.647H12.4a.8.8,0,1,0,0,1.6h4.8a.812.812,0,0,0,.8-.8V12.4A.8.8,0,0,0,17.194,11.6Zm.736-9.1a.812.812,0,0,0-.736-.5H12.4a.8.8,0,1,0,0,1.6h2.871L2.231,16.627a.8.8,0,1,0,1.136,1.136L16.395,4.726V7.6a.8.8,0,0,0,1.6,0V2.8a.8.8,0,0,0-.064-.3Z" transform="translate(-1.994 -1.996)" fill="#fff"/>
  </g>
</svg>
