<svg xmlns="http://www.w3.org/2000/svg" xmlns:xlink="http://www.w3.org/1999/xlink" width="64" height="64" viewBox="0 0 64 64">
  <defs>
    <clipPath id="clip-Wallet_connect">
      <rect width="64" height="64"/>
    </clipPath>
  </defs>
  <g id="Wallet_connect" data-name="Wallet connect" clip-path="url(#clip-Wallet_connect)">
    <path id="logo_mark.84dd8525" d="M11.628,6.8a24.079,24.079,0,0,1,33.543,0l1.115,1.091a1.144,1.144,0,0,1,0,1.642l-3.813,3.734a.6.6,0,0,1-.839,0l-1.534-1.5a16.8,16.8,0,0,0-23.4,0l-1.643,1.609a.6.6,0,0,1-.839,0L10.4,9.642A1.144,1.144,0,0,1,10.4,8l1.224-1.2Zm41.43,7.722,3.394,3.323a1.143,1.143,0,0,1,0,1.642l-15.3,14.984a1.2,1.2,0,0,1-1.677,0L28.609,23.838a.3.3,0,0,0-.419,0L17.328,34.472a1.2,1.2,0,0,1-1.677,0L.347,19.489a1.144,1.144,0,0,1,0-1.642l3.394-3.323a1.2,1.2,0,0,1,1.677,0L16.28,25.157a.3.3,0,0,0,.419,0L27.561,14.523a1.2,1.2,0,0,1,1.677,0L40.1,25.158a.3.3,0,0,0,.419,0L51.381,14.524a1.2,1.2,0,0,1,1.677,0Z" transform="translate(4.001 15)" fill="#3b99fc"/>
  </g>
</svg>
