<svg xmlns="http://www.w3.org/2000/svg" xmlns:xlink="http://www.w3.org/1999/xlink" width="16" height="16" viewBox="0 0 16 16">
  <defs>
    <clipPath id="clip-WiFi">
      <rect width="16" height="16"/>
    </clipPath>
  </defs>
  <g id="WiFi" clip-path="url(#clip-WiFi)">
    <g id="XMLID_358_" transform="translate(0 -51.896)">
      <path id="XMLID_362_" d="M198.76,343.155a1.574,1.574,0,1,0,2.227,0A1.575,1.575,0,0,0,198.76,343.155Z" transform="translate(-191.874 -279.44)" fill="#fff"/>
      <path id="XMLID_361_" d="M136.28,241.383a4.823,4.823,0,0,0-3.434,1.423.921.921,0,0,0,1.3,1.3,3.013,3.013,0,0,1,4.262,0,.921.921,0,1,0,1.3-1.3A4.823,4.823,0,0,0,136.28,241.383Z" transform="translate(-128.28 -181.411)" fill="#fff"/>
      <path id="XMLID_360_" d="M72.205,147.743a7.839,7.839,0,0,0-5.58,2.311.921.921,0,0,0,1.3,1.3,6.048,6.048,0,0,1,8.553,0,.921.921,0,0,0,1.3-1.3A7.838,7.838,0,0,0,72.205,147.743Z" transform="translate(-64.205 -90.806)" fill="#fff"/>
      <path id="XMLID_359_" d="M15.731,57.1A10.931,10.931,0,0,0,.27,57.1a.921.921,0,1,0,1.3,1.3,9.088,9.088,0,0,1,12.854,0,.922.922,0,0,0,1.3-1.3Z" transform="translate(0)" fill="#fff"/>
    </g>
  </g>
</svg>
